<svg preserveAspectRatio="none" width="100%" height="100%" overflow="visible" style="display: block;" viewBox="0 0 4 9" fill="none" xmlns="http://www.w3.org/2000/svg">
<path id="Fill 34" fill-rule="evenodd" clip-rule="evenodd" d="M3.988 0.244676C3.733 0.163676 3.477 0.0786763 3.216 0.0136763C2.119 -0.111324 1.022 0.661676 1.022 0.661676C0.723 0.848676 0.364 1.11268 0 1.40168V2.41268L0.026 2.40568C0.018 2.41168 0.008 2.41968 0 2.42668V4.88368C0.008 4.88168 0.019 4.87568 0.026 4.87268C0.019 4.88768 0.008 4.89768 0 4.91168V5.56468C0.026 5.55168 0.05 5.53368 0.075 5.52068C0.054 5.56668 0.027 5.60968 0 5.65368V6.14368C0.156 6.08068 0.319 6.03368 0.449 5.99468L0.424 6.01968C0.402 6.04168 0.188 6.20168 0 6.39168V6.46568C0.058 6.46068 0.025 6.45468 0.2 6.49268H0.324C0.275 6.51768 0.2 6.56768 0.125 6.59368C0.087 6.61168 0.043 6.63668 0 6.65968V6.99568C0.434 7.48968 0.938 7.90668 1.521 8.18768C2.295 8.56368 3.13 8.71168 3.988 8.65568V0.244676Z" fill="var(--fill-0, #FFFFFE)"/>
</svg>
