<svg preserveAspectRatio="none" width="100%" height="100%" overflow="visible" style="display: block;" viewBox="0 0 21 15" fill="none" xmlns="http://www.w3.org/2000/svg">
<g id="Group">
<path id="Vector" d="M3.375 0C3.30004 0.72494 3.39983 1.45006 3.67481 2.125C4.26223 1.46259 4.97475 0.9248 5.78711 0.54981C5.59964 1.22478 5.61251 1.95004 5.8125 2.625C5.89982 2.68737 5.9623 2.73721 6.03711 2.78711C6.16211 2.89961 6.31231 3.0377 6.61231 3.3252L6.6377 3.34961C7.31269 3.8246 8.01271 4.22521 8.7627 4.5752C8.52523 5.00003 8.16272 5.3377 7.71289 5.5127C5.24135 5.5127 4.81783 6.95609 4.8125 6.97461C4.9 7.5746 5.12481 8.1375 5.48731 8.625C5.84981 9.1125 6.32502 9.5 6.875 9.75C6.92498 9.775 6.97542 9.8 7.02539 9.8125C7.11262 9.8499 7.19988 9.8872 7.28711 9.9121C7.64956 10.0371 8.03737 10.1127 8.42481 10.1377C8.93828 10.2009 9.45645 10.1527 9.94532 9.9961C10.4027 10.4363 10.7801 10.9589 11.0527 11.543L12.2001 14.002C12.0388 14.0687 11.8757 14.1321 11.7099 14.1895C10.4559 14.6232 9.12726 14.7666 7.82129 14.6221C7.81819 14.6311 7.81558 14.6404 7.8125 14.6494C5.87515 14.4619 4.05015 13.625 2.6377 12.2627C0.98779 10.6628 0.0376021 8.4876 0 6.2002V5.84961C0.0249849 5.63721 0.0375077 5.48727 0.0625 5.36231L0.0878906 5.16211C0.137872 4.8248 0.199603 4.53734 0.22461 4.42481V4.375C0.449579 3.45013 0.849731 2.57493 1.41211 1.8125C1.66206 1.47508 1.93718 1.16225 2.22461 0.86231C2.48711 0.59981 2.77539 0.36192 3.08789 0.14942C3.17527 0.08708 3.27519 0.03744 3.375 0ZM13.8183 0.56055C13.8901 0.40666 14.1098 0.40666 14.1816 0.56055L15.2685 2.89063C15.785 3.9972 16.6746 4.88681 17.7812 5.40332L20.1113 6.49024C20.2652 6.56206 20.2652 6.7817 20.1113 6.85352L17.7812 7.9404C16.6746 8.4569 15.785 9.3466 15.2685 10.4531L14.1816 12.7832C14.1098 12.9371 13.8901 12.9371 13.8183 12.7832L12.7314 10.4531C12.2149 9.3466 11.3253 8.4569 10.2187 7.9404L7.88868 6.85352C7.73479 6.7817 7.73479 6.56206 7.88868 6.49024L10.2187 5.40332C11.3253 4.88681 12.2149 3.9972 12.7314 2.89063L13.8183 0.56055Z" fill="url(#paint0_linear_5_2285)"/>
</g>
<defs>
<linearGradient id="paint0_linear_5_2285" x1="4.48351" y1="0.7919" x2="22.4554" y2="3.19543" gradientUnits="userSpaceOnUse">
<stop stop-color="#945AF2"/>
<stop offset="0.471154" stop-color="#F37E49"/>
<stop offset="1" stop-color="#FC4F43"/>
</linearGradient>
</defs>
</svg>
