<svg preserveAspectRatio="none" width="100%" height="100%" overflow="visible" style="display: block;" viewBox="0 0 15 16" fill="none" xmlns="http://www.w3.org/2000/svg">
<g id="Firefox Logo">
<path id="shape base" d="M14.4598 5.19849C14.1334 4.41337 13.4723 3.56574 12.9532 3.29783C13.3757 4.12612 13.6203 4.95699 13.7137 5.57708C13.7137 5.5783 13.7142 5.58133 13.7152 5.58958C12.8659 3.47293 11.426 2.61943 10.2501 0.761053C10.1907 0.667084 10.1312 0.572866 10.0732 0.473553C10.0437 0.422834 10.0161 0.371004 9.99053 0.318178C9.94168 0.223861 9.904 0.124166 9.87825 0.0211155C9.87843 0.0162369 9.87678 0.0114673 9.87362 0.00774353C9.87046 0.0040198 9.86603 0.00161108 9.86119 0.000990505C9.85658 -0.000330168 9.8517 -0.000330168 9.84709 0.000990505C9.84603 0.0013655 9.84447 0.00258425 9.84334 0.00302175C9.84169 0.003678 9.83959 0.005178 9.83784 0.00614675C9.83869 0.00502175 9.84044 0.0024905 9.84097 0.00189675C7.95441 1.10677 7.31441 3.15068 7.25559 4.17327C6.50224 4.22506 5.78196 4.50262 5.18866 4.96977C5.12654 4.9173 5.0616 4.86827 4.99412 4.8229C4.82295 4.22402 4.81567 3.59017 4.97306 2.98752C4.20156 3.3388 3.6015 3.89408 3.16525 4.3844H3.16178C2.86406 4.0073 2.88506 2.76337 2.90203 2.50365C2.89847 2.48755 2.67994 2.61708 2.65131 2.63662C2.3886 2.82414 2.14299 3.03454 1.91737 3.26537C1.66063 3.52573 1.42605 3.80705 1.21606 4.1064C1.21606 4.10677 1.21584 4.10721 1.21572 4.10758C1.21572 4.10718 1.21594 4.10677 1.21606 4.1064C0.733136 4.79075 0.390631 5.56404 0.208344 6.38155C0.20475 6.39783 0.201719 6.41471 0.198219 6.43112C0.184094 6.49724 0.133219 6.82799 0.124313 6.89987C0.123625 6.9054 0.123312 6.91071 0.122656 6.91624C0.0568824 7.2582 0.0161493 7.60451 0.000781238 7.9524C0.000781238 7.96521 0 7.9779 0 7.99074C0.000125 12.138 3.36263 15.5 7.51025 15.5C11.2248 15.5 14.309 12.8035 14.9128 9.26152C14.9255 9.1654 14.9357 9.06877 14.9469 8.9718C15.0962 7.68399 14.9304 6.3304 14.4598 5.19849ZM5.80375 11.0764C5.83888 11.0932 5.87188 11.1116 5.90794 11.1276C5.90944 11.1287 5.9115 11.1298 5.91303 11.1308C5.87633 11.1132 5.83989 11.0951 5.80375 11.0764V11.0764ZM13.7157 5.59143L13.7148 5.58415C13.7151 5.5868 13.7156 5.58958 13.716 5.59224L13.7157 5.59143Z" fill="url(#paint0_linear_5_2017)"/>
<path id="body outer ring" d="M14.4599 5.19851C14.1335 4.41338 13.4724 3.56576 12.9532 3.29785C13.3757 4.12613 13.6203 4.95701 13.7137 5.5771C13.7137 5.57529 13.714 5.5786 13.7148 5.58417C13.7152 5.58682 13.7157 5.5896 13.7161 5.59226C14.4247 7.5132 14.0386 9.46658 13.4824 10.6602C12.6218 12.5071 10.5381 14.3999 7.27686 14.3076C3.75326 14.2078 0.649076 11.5934 0.0696075 8.16905C-0.0359862 7.62904 0.0696075 7.35486 0.122733 6.91642C0.0580138 7.25442 0.0333576 7.35204 0.000857562 7.95258C0.000857562 7.96539 7.62939e-05 7.97808 7.62939e-05 7.99092C0.000138794 12.138 3.36264 15.5 7.51026 15.5C11.2248 15.5 14.309 12.8035 14.9128 9.26155C14.9255 9.16542 14.9357 9.0688 14.947 8.97183C15.0962 7.68401 14.9304 6.33042 14.4599 5.19851Z" fill="url(#paint1_radial_5_2017)"/>
<path id="body outer ring shadow" d="M14.4599 5.19851C14.1335 4.41338 13.4724 3.56576 12.9532 3.29785C13.3757 4.12613 13.6203 4.95701 13.7137 5.5771C13.7137 5.57529 13.714 5.5786 13.7148 5.58417C13.7152 5.58682 13.7157 5.5896 13.7161 5.59226C14.4247 7.5132 14.0386 9.46658 13.4824 10.6602C12.6218 12.5071 10.5381 14.3999 7.27686 14.3076C3.75326 14.2078 0.649076 11.5934 0.0696075 8.16905C-0.0359862 7.62904 0.0696075 7.35486 0.122733 6.91642C0.0580138 7.25442 0.0333576 7.35204 0.000857562 7.95258C0.000857562 7.96539 7.62939e-05 7.97808 7.62939e-05 7.99092C0.000138794 12.138 3.36264 15.5 7.51026 15.5C11.2248 15.5 14.309 12.8035 14.9128 9.26155C14.9255 9.16542 14.9357 9.0688 14.947 8.97183C15.0962 7.68401 14.9304 6.33042 14.4599 5.19851Z" fill="url(#paint2_radial_5_2017)"/>
<path id="tail tip" d="M10.8102 6.08127C10.8266 6.09277 10.8414 6.10421 10.8568 6.11564C10.6684 5.78113 10.4337 5.47487 10.1597 5.20589C7.82513 2.87164 9.5475 0.144581 9.83797 0.00608105C9.83882 0.00495605 9.84057 0.0024248 9.8411 0.00183105C7.95453 1.10671 7.31453 3.15061 7.25572 4.17321C7.34322 4.16714 7.43047 4.1598 7.51953 4.1598C8.92738 4.1598 10.1536 4.93386 10.8102 6.08127V6.08127Z" fill="url(#paint3_radial_5_2017)"/>
<path id="globe base" d="M7.52425 6.54735C7.51196 6.73416 6.85193 7.37838 6.62112 7.37838C4.48553 7.37838 4.13887 8.67009 4.13887 8.67009C4.23346 9.7579 4.99078 10.6537 5.90796 11.1277C5.94981 11.1493 5.99215 11.1688 6.03453 11.1882C6.10718 11.2203 6.18074 11.2504 6.25512 11.2783C6.5696 11.3897 6.89901 11.4532 7.23234 11.4668C10.9755 11.6424 11.7007 6.992 8.99937 5.64157C9.69115 5.52126 10.4092 5.79947 10.8102 6.08116C10.1536 4.93385 8.9274 4.15979 7.51959 4.15979C7.43053 4.15979 7.34331 4.16713 7.25578 4.1732C6.50242 4.22499 5.78214 4.50255 5.18884 4.96969C5.30334 5.06657 5.43259 5.19607 5.7049 5.46432C6.21434 5.96641 7.52146 6.48635 7.52425 6.54735V6.54735Z" fill="url(#paint4_radial_5_2017)"/>
<path id="globe shadow" d="M7.52425 6.54735C7.51196 6.73416 6.85193 7.37838 6.62112 7.37838C4.48553 7.37838 4.13887 8.67009 4.13887 8.67009C4.23346 9.7579 4.99078 10.6537 5.90796 11.1277C5.94981 11.1493 5.99215 11.1688 6.03453 11.1882C6.10718 11.2203 6.18074 11.2504 6.25512 11.2783C6.5696 11.3897 6.89901 11.4532 7.23234 11.4668C10.9755 11.6424 11.7007 6.992 8.99937 5.64157C9.69115 5.52126 10.4092 5.79947 10.8102 6.08116C10.1536 4.93385 8.9274 4.15979 7.51959 4.15979C7.43053 4.15979 7.34331 4.16713 7.25578 4.1732C6.50242 4.22499 5.78214 4.50255 5.18884 4.96969C5.30334 5.06657 5.43259 5.19607 5.7049 5.46432C6.21434 5.96641 7.52146 6.48635 7.52425 6.54735V6.54735Z" fill="url(#paint5_radial_5_2017)"/>
<path id="ear" d="M4.83852 4.71993C4.89083 4.75367 4.94272 4.78804 4.99418 4.82305C4.823 4.22417 4.81573 3.59032 4.97312 2.98767C4.20162 3.33895 3.60155 3.89424 3.1653 4.38455C3.20139 4.38352 4.29074 4.36393 4.83852 4.71993V4.71993Z" fill="url(#paint6_radial_5_2017)"/>
<path id="body" d="M0.0695971 8.16901C0.649066 11.5933 3.75325 14.2078 7.27685 14.3076C10.5381 14.3999 12.6218 12.5069 13.4823 10.6602C14.0386 9.46645 14.4247 7.51332 13.7161 5.59223L13.7158 5.59142L13.7148 5.58414C13.714 5.57858 13.7136 5.57526 13.7137 5.57708C13.7137 5.5783 13.7142 5.58133 13.7152 5.58958C13.9815 7.32898 13.0967 9.01407 11.7136 10.1534L11.7094 10.1632C9.01425 12.3577 6.43522 11.4872 5.91303 11.1309C5.87633 11.1133 5.83987 11.0951 5.80366 11.0764C4.23235 10.3255 3.58322 8.89401 3.72241 7.66632C2.39563 7.66632 1.94322 6.54729 1.94322 6.54729C1.94322 6.54729 3.13444 5.69795 4.70441 6.43664C6.15847 7.12079 7.52403 6.54736 7.52419 6.54729C7.52141 6.48629 6.21428 5.96636 5.70472 5.4643C5.43244 5.19605 5.30316 5.0667 5.18866 4.96967C5.12654 4.9172 5.0616 4.86817 4.99413 4.8228C4.94261 4.78787 4.89072 4.7535 4.83847 4.71967C4.29072 4.36367 3.20135 4.38327 3.16525 4.3842H3.16178C2.86407 4.00711 2.88507 2.76317 2.90203 2.50346C2.89847 2.48736 2.67994 2.61689 2.65132 2.63642C2.3886 2.82395 2.143 3.03435 1.91738 3.26517C1.66063 3.5256 1.42604 3.80698 1.21607 4.10639C1.21607 4.10677 1.21585 4.1072 1.21572 4.10758C1.21572 4.10717 1.21594 4.10677 1.21607 4.10639C0.733139 4.79075 0.390635 5.56403 0.208347 6.38154C0.204753 6.39783 -0.0619654 7.56411 0.0695971 8.16901V8.16901Z" fill="url(#paint7_radial_5_2017)"/>
<path id="tail flame" d="M10.1597 5.2058C10.4337 5.47478 10.6684 5.78104 10.8568 6.11555C10.8982 6.14662 10.9368 6.17758 10.9696 6.2078C12.6722 7.77655 11.7801 9.9953 11.7136 10.1534C13.0967 9.01405 13.9815 7.32896 13.7152 5.58955C12.8659 3.47293 11.426 2.61943 10.2501 0.761053C10.1908 0.667084 10.1312 0.572866 10.0732 0.473553C10.0437 0.422834 10.0161 0.371004 9.99053 0.318178C9.94168 0.223861 9.904 0.124166 9.87825 0.0211155C9.87843 0.0162369 9.87678 0.0114673 9.87362 0.00774353C9.87047 0.0040198 9.86603 0.00161108 9.86119 0.000990505C9.85658 -0.000330168 9.8517 -0.000330168 9.84709 0.000990505C9.84603 0.0013655 9.84447 0.00258425 9.84335 0.00302175C9.84169 0.003678 9.8396 0.005178 9.83785 0.00614675C9.5475 0.144522 7.82512 2.87158 10.1597 5.2058V5.2058Z" fill="url(#paint8_radial_5_2017)"/>
<path id="tail small" d="M10.9696 6.20779C10.9368 6.17757 10.8982 6.1466 10.8569 6.11554C10.8416 6.10404 10.8266 6.0926 10.8102 6.08117C10.4092 5.79948 9.69114 5.52126 8.99936 5.64157C11.7006 6.99201 10.9755 11.6424 7.23232 11.4668C6.89899 11.4532 6.56958 11.3897 6.2551 11.2783C6.18073 11.2504 6.10717 11.2203 6.03451 11.1882C5.99213 11.1688 5.94979 11.1493 5.90794 11.1277C5.90944 11.1287 5.91151 11.1299 5.91304 11.1308C6.43523 11.4871 9.01426 12.3576 11.7094 10.1631L11.7136 10.1533C11.7801 9.99541 12.6722 7.77657 10.9696 6.20779V6.20779Z" fill="url(#paint9_radial_5_2017)"/>
<path id="cheek tufts" d="M4.13885 8.67006C4.13885 8.67006 4.48551 7.37834 6.62111 7.37834C6.85198 7.37834 7.51202 6.73412 7.52424 6.54731C7.53645 6.36049 6.15861 7.12081 4.70445 6.43665C3.13447 5.69796 1.94325 6.54731 1.94325 6.54731C1.94325 6.54731 2.39566 7.66634 3.72244 7.66634C3.58329 8.89402 4.23242 10.3257 5.8037 11.0765C5.83883 11.0932 5.87183 11.1116 5.90789 11.1277C4.99076 10.6536 4.23345 9.75787 4.13885 8.67006V8.67006Z" fill="url(#paint10_radial_5_2017)"/>
<path id="overlay yellow" d="M14.4598 5.19849C14.1334 4.41337 13.4723 3.56574 12.9532 3.29783C13.3757 4.12612 13.6202 4.95699 13.7137 5.57708C13.7137 5.5783 13.7142 5.58133 13.7152 5.58958C12.8659 3.47293 11.426 2.61943 10.2501 0.761053C10.1907 0.667084 10.1312 0.572866 10.0732 0.473553C10.0437 0.422834 10.0161 0.371004 9.99053 0.318178C9.94168 0.223861 9.90399 0.124166 9.87825 0.0211155C9.87843 0.0162369 9.87678 0.0114673 9.87362 0.00774353C9.87046 0.0040198 9.86603 0.00161108 9.86118 0.000990505C9.85658 -0.000330168 9.8517 -0.000330168 9.84709 0.000990505C9.84603 0.0013655 9.84447 0.00258425 9.84334 0.00302175C9.84168 0.003678 9.83959 0.005178 9.83784 0.00614675C9.83868 0.00502175 9.84043 0.0024905 9.84097 0.00189675C7.9544 1.10677 7.3144 3.15068 7.25559 4.17327C7.34309 4.16721 7.43034 4.15987 7.5194 4.15987C8.92731 4.15987 10.1535 4.93393 10.81 6.08124C10.409 5.79955 9.69097 5.52133 8.99918 5.64165C11.7005 6.99208 10.9753 11.6425 7.23215 11.4669C6.89882 11.4533 6.56942 11.3898 6.25493 11.2784C6.18057 11.2505 6.107 11.2204 6.03434 11.1882C5.99197 11.1689 5.94962 11.1494 5.90778 11.1278C5.90928 11.1288 5.91134 11.13 5.91287 11.1309C5.87617 11.1132 5.83971 11.0951 5.8035 11.0764C5.83862 11.0932 5.87162 11.1116 5.90768 11.1276C4.9905 10.6536 4.23318 9.75787 4.13859 8.67005C4.13859 8.67005 4.48525 7.37833 6.62084 7.37833C6.85172 7.37833 7.51175 6.73412 7.52397 6.5473C7.52118 6.4863 6.21406 5.96637 5.7045 5.4643C5.43222 5.19605 5.30293 5.06671 5.18843 4.96968C5.12632 4.91721 5.06138 4.86818 4.9939 4.8228C4.82273 4.22393 4.81545 3.59008 4.97284 2.98743C4.20134 3.33871 3.60128 3.89399 3.16503 4.3843H3.16156C2.86384 4.00721 2.88484 2.76327 2.90181 2.50355C2.89825 2.48746 2.67972 2.61699 2.65109 2.63652C2.38838 2.82404 2.14277 3.03445 1.91715 3.26527C1.66048 3.52567 1.42597 3.80702 1.21606 4.1064C1.21606 4.10677 1.21584 4.10721 1.21572 4.10758C1.21572 4.10718 1.21593 4.10677 1.21606 4.1064C0.733133 4.79075 0.390628 5.56404 0.208341 6.38155C0.204747 6.39783 0.201716 6.41471 0.198216 6.43112C0.184091 6.49724 0.120528 6.83277 0.111653 6.90474C0.110966 6.91027 0.11231 6.89924 0.111653 6.90474C0.0536893 7.25147 0.0167054 7.60137 0.000903308 7.95255C0.000903308 7.96537 0.00012207 7.97805 0.00012207 7.9909C0.00012207 12.138 3.36262 15.5 7.51025 15.5C11.2248 15.5 14.309 12.8035 14.9128 9.26152C14.9255 9.1654 14.9357 9.06877 14.9469 8.9718C15.0962 7.68399 14.9304 6.3304 14.4598 5.19849ZM13.7148 5.58415C13.7152 5.5868 13.7157 5.58958 13.7161 5.59224L13.7158 5.59143L13.7148 5.58415V5.58415Z" fill="url(#paint11_linear_5_2017)"/>
</g>
<defs>
<linearGradient id="paint0_linear_5_2017" x1="13.0876" y1="2.40249" x2="1.02863" y2="14.0351" gradientUnits="userSpaceOnUse">
<stop offset="0.05" stop-color="#FFF44F"/>
<stop offset="0.37" stop-color="#FF980E"/>
<stop offset="0.53" stop-color="#FF3647"/>
<stop offset="0.7" stop-color="#E31587"/>
</linearGradient>
<radialGradient id="paint1_radial_5_2017" cx="0" cy="0" r="1" gradientUnits="userSpaceOnUse" gradientTransform="translate(10.3937 1.72781) scale(15.3601 15.6187)">
<stop offset="0.13" stop-color="#FFBD4F"/>
<stop offset="0.28" stop-color="#FF980E"/>
<stop offset="0.47" stop-color="#FF3750"/>
<stop offset="0.78" stop-color="#EB0878"/>
<stop offset="0.86" stop-color="#E50080"/>
</radialGradient>
<radialGradient id="paint2_radial_5_2017" cx="0" cy="0" r="1" gradientUnits="userSpaceOnUse" gradientTransform="translate(5.93986 8.17871) scale(15.7441 15.6187)">
<stop offset="0.3" stop-color="#960E18"/>
<stop offset="0.35" stop-color="#B11927" stop-opacity="0.74"/>
<stop offset="0.43" stop-color="#DB293D" stop-opacity="0.34"/>
<stop offset="0.5" stop-color="#F5334B" stop-opacity="0.09"/>
<stop offset="0.53" stop-color="#FF3750" stop-opacity="0"/>
</radialGradient>
<radialGradient id="paint3_radial_5_2017" cx="0" cy="0" r="1" gradientUnits="userSpaceOnUse" gradientTransform="translate(8.98426 -0.731827) scale(5.04158 8.55934)">
<stop offset="0.13" stop-color="#FFF44F"/>
<stop offset="0.53" stop-color="#FF980E"/>
</radialGradient>
<radialGradient id="paint4_radial_5_2017" cx="0" cy="0" r="1" gradientUnits="userSpaceOnUse" gradientTransform="translate(5.65727 12.2109) scale(6.67134 7.31186)">
<stop offset="0.35" stop-color="#3A8EE6"/>
<stop offset="0.67" stop-color="#9059FF"/>
<stop offset="1" stop-color="#C139E6"/>
</radialGradient>
<radialGradient id="paint5_radial_5_2017" cx="0" cy="0" r="1" gradientUnits="userSpaceOnUse" gradientTransform="translate(6.79718 6.5727) scale(3.54248 4.314)">
<stop offset="0.21" stop-color="#9059FF" stop-opacity="0"/>
<stop offset="0.97" stop-color="#6E008B" stop-opacity="0.6"/>
</radialGradient>
<radialGradient id="paint6_radial_5_2017" cx="0" cy="0" r="1" gradientUnits="userSpaceOnUse" gradientTransform="translate(7.00595 1.15229) scale(5.30376 5.32261)">
<stop offset="0.1" stop-color="#FFE226"/>
<stop offset="0.79" stop-color="#FF7139"/>
</radialGradient>
<radialGradient id="paint7_radial_5_2017" cx="0" cy="0" r="1" gradientUnits="userSpaceOnUse" gradientTransform="translate(11.8497 -2.33951) scale(25.3212 21.2557)">
<stop offset="0.11" stop-color="#FFF44F"/>
<stop offset="0.46" stop-color="#FF980E"/>
<stop offset="0.72" stop-color="#FF3647"/>
<stop offset="0.9" stop-color="#E31587"/>
</radialGradient>
<radialGradient id="paint8_radial_5_2017" cx="0" cy="0" r="1" gradientTransform="matrix(1.75321 7.8399 -35.2213 1.73989 2.44593 4.67997)" gradientUnits="userSpaceOnUse">
<stop stop-color="#FFF44F"/>
<stop offset="0.3" stop-color="#FF980E"/>
<stop offset="0.57" stop-color="#FF3647"/>
<stop offset="0.74" stop-color="#E31587"/>
</radialGradient>
<radialGradient id="paint9_radial_5_2017" cx="0" cy="0" r="1" gradientUnits="userSpaceOnUse" gradientTransform="translate(7.0605 3.0666) scale(14.5381 14.2826)">
<stop offset="0.14" stop-color="#FFF44F"/>
<stop offset="0.48" stop-color="#FF980E"/>
<stop offset="0.66" stop-color="#FF3647"/>
<stop offset="0.9" stop-color="#E31587"/>
</radialGradient>
<radialGradient id="paint10_radial_5_2017" cx="0" cy="0" r="1" gradientUnits="userSpaceOnUse" gradientTransform="translate(10.8339 3.90193) scale(17.4743 15.6328)">
<stop offset="0.09" stop-color="#FFF44F"/>
<stop offset="0.63" stop-color="#FF980E"/>
</radialGradient>
<linearGradient id="paint11_linear_5_2017" x1="12.0001" y1="2.16999" x2="2.35713" y2="12.7061" gradientUnits="userSpaceOnUse">
<stop offset="0.17" stop-color="#FFF44F" stop-opacity="0.8"/>
<stop offset="0.6" stop-color="#FFF44F" stop-opacity="0"/>
</linearGradient>
</defs>
</svg>
