<svg preserveAspectRatio="none" width="100%" height="100%" overflow="visible" style="display: block;" viewBox="0 0 16 12" fill="none" xmlns="http://www.w3.org/2000/svg">
<g id="Gmail_icon_(2020)">
<path id="Vector" d="M1.09091 12.0031H3.63636V5.82128L0 3.09401V10.9122C0 11.5158 0.489091 12.0031 1.09091 12.0031Z" fill="var(--fill-0, #4285F4)"/>
<path id="Vector_2" d="M12.3636 12.0031H14.9091C15.5127 12.0031 16 11.514 16 10.9122V3.09401L12.3636 5.82128" fill="var(--fill-0, #34A853)"/>
<path id="Vector_3" d="M12.3636 1.094V5.82128L16 3.094V1.63946C16 0.290367 14.46 -0.478723 13.3818 0.330367" fill="var(--fill-0, #FBBC04)"/>
<path id="Vector_4" d="M3.63636 5.82128V1.09401L8 4.36673L12.3636 1.09401V5.82128L8 9.09401" fill="var(--fill-0, #EA4335)"/>
<path id="Vector_5" d="M0 1.63946V3.094L3.63636 5.82128V1.094L2.61818 0.330367C1.53818 -0.478723 0 0.290367 0 1.63946" fill="var(--fill-0, #C5221F)"/>
</g>
</svg>
