<svg preserveAspectRatio="none" width="100%" height="100%" overflow="visible" style="display: block;" viewBox="0 0 12 9" fill="none" xmlns="http://www.w3.org/2000/svg">
<path id="Fill 16" fill-rule="evenodd" clip-rule="evenodd" d="M11.414 4.34968C11.265 3.92668 11.314 3.20368 11.239 3.10368C10.767 2.45568 9.071 2.35568 8.299 1.50868C8.424 1.08468 8.149 0.761676 7.875 0.486676C7.451 0.187676 6.878 0.312676 6.43 0.436676C5.931 0.337676 5.458 0.138676 4.959 0.0136763C3.863 -0.111324 2.766 0.661676 2.766 0.661676C1.969 1.15968 0.747 2.20668 0.149 2.80468C0.299 2.82968 0.448 2.70468 0.623 2.70468L1.769 2.40568C1.296 2.80468 0.299 3.47768 0 4.02568C0.349 3.90168 1.096 3.50268 1.47 3.45268C1.146 3.72668 0.473 4.27468 0.249 4.62368C0.274 4.64868 0.249 4.67368 0.249 4.69868C0.523 4.54968 1.196 4.15068 1.52 4.12568C1.196 4.44968 0.623 5.09768 0.498 5.52068C0.772 5.34768 1.47 4.97268 1.769 4.87268C1.694 5.04768 1.545 5.17268 1.445 5.32168C1.296 5.54668 0.972 5.81968 0.972 6.09468C1.221 5.86968 1.52 5.67068 1.819 5.52068C1.694 5.79568 1.445 6.01968 1.371 6.36868C1.57 6.16968 1.944 6.06968 2.193 5.99468L2.168 6.01968C2.143 6.04468 1.869 6.24368 1.669 6.46868C1.844 6.46868 1.72 6.44268 1.944 6.49268H2.068C2.018 6.51768 1.944 6.56768 1.869 6.59368C1.769 6.64268 1.644 6.71768 1.545 6.76668C2.018 7.36568 2.592 7.86368 3.265 8.18768C4.137 8.61168 5.084 8.76168 6.056 8.63668C6.056 8.58668 6.031 8.53668 6.006 8.46268C5.981 8.38768 5.956 8.33768 5.956 8.26268C6.28 7.66468 6.106 6.61768 6.953 6.19368C7.526 5.89468 7.576 5.74568 8.225 5.86968C8.573 5.94468 9.346 6.19368 9.694 6.11968C10.018 5.94468 10.193 5.84568 10.492 5.64568C10.841 5.72068 10.966 5.67068 11.09 5.49668C10.966 5.67068 11.314 4.84868 11.464 4.54968L11.414 4.34968Z" fill="var(--fill-0, #FFFFFE)"/>
</svg>
