<svg preserveAspectRatio="none" width="100%" height="100%" overflow="visible" style="display: block;" viewBox="0 0 11 11" fill="none" xmlns="http://www.w3.org/2000/svg">
<path id="Shape" d="M5.24767 0C5.9774 3.39982e-08 6.33294 0.578797 6.4547 0.797607C6.60242 1.06315 6.74179 1.42867 6.8773 1.77832L7.16854 2.53093C7.20245 2.61856 7.21941 2.66238 7.25515 2.68837C7.29089 2.71435 7.33781 2.71697 7.43163 2.72219L8.23741 2.76709C8.61189 2.78793 9.00263 2.80679 9.30089 2.86523C9.54636 2.91334 10.2068 3.07266 10.4325 3.76685C10.6581 4.46118 10.2168 4.97818 10.0465 5.16138C9.83957 5.38394 9.53515 5.62904 9.24449 5.86597L8.61891 6.37577C8.54605 6.43514 8.50963 6.46482 8.49598 6.50685C8.48233 6.54888 8.49436 6.59431 8.51843 6.68516L8.7252 7.46558C8.82109 7.8281 8.92301 8.20542 8.95958 8.50708C8.98968 8.7554 9.04264 9.43294 8.45201 9.86206C7.8615 10.291 7.23386 10.0312 7.00694 9.92578C6.7313 9.79776 6.40369 9.58411 6.08849 9.38086L5.41036 8.94315C5.33137 8.89216 5.29187 8.86667 5.24767 8.86667C5.20346 8.86667 5.16396 8.89216 5.08497 8.94315L4.40684 9.38086C4.09177 9.58403 3.76467 9.79777 3.48912 9.92578C3.26226 10.0311 2.63395 10.2912 2.04332 9.86206C1.45282 9.43296 1.50565 8.75542 1.53575 8.50708C1.57233 8.20539 1.67497 7.82813 1.77086 7.46558L1.97707 6.68505C2.00106 6.59425 2.01305 6.54885 1.9994 6.50685C1.98574 6.46485 1.94934 6.43519 1.87654 6.37586L1.25084 5.86597C0.960211 5.62906 0.655713 5.3839 0.448837 5.16138C0.278463 4.9781 -0.162714 4.46106 0.0628507 3.76685L0.110458 3.64307C0.369846 3.0533 0.965047 2.91033 1.19517 2.86523C1.49334 2.80685 1.88364 2.78792 2.25792 2.76709L3.06326 2.72218C3.15695 2.71696 3.2038 2.71435 3.23951 2.68842C3.27522 2.6625 3.29221 2.61876 3.3262 2.5313L3.61876 1.77832C3.75426 1.42871 3.89293 1.06312 4.04063 0.797607C4.1623 0.578934 4.51788 9.68286e-05 5.24767 0Z" fill="var(--fill-0, #5E606D)"/>
</svg>
