<svg preserveAspectRatio="none" width="100%" height="100%" overflow="visible" style="display: block;" viewBox="0 0 10 11" fill="none" xmlns="http://www.w3.org/2000/svg">
<path id="Vector" d="M9.12745 3.75027C9.06028 3.79978 7.87432 4.43454 7.87432 5.84598C7.87432 7.47855 9.3834 8.05611 9.42857 8.07041C9.42162 8.10561 9.18883 8.86139 8.63292 9.63146C8.13723 10.3091 7.61953 10.9857 6.83198 10.9857C6.04443 10.9857 5.84175 10.5512 4.9326 10.5512C4.04661 10.5512 3.73159 11 3.01121 11C2.29084 11 1.7882 10.3729 1.21028 9.60286C0.54086 8.69857 0 7.29373 0 5.9604C0 3.82178 1.46391 2.68757 2.90466 2.68757C3.67021 2.68757 4.30835 3.16502 4.78899 3.16502C5.24646 3.16502 5.95989 2.65897 6.83082 2.65897C7.1609 2.65897 8.34685 2.68757 9.12745 3.75027ZM6.41736 1.75358C6.77755 1.34763 7.03234 0.784378 7.03234 0.221122C7.03234 0.143014 7.02539 0.0638064 7.01034 0C6.42431 0.0209021 5.7271 0.370737 5.30668 0.833883C4.97661 1.19032 4.66854 1.75358 4.66854 2.32453C4.66854 2.41034 4.68359 2.49615 4.69054 2.52365C4.7276 2.53025 4.78783 2.53795 4.84805 2.53795C5.37386 2.53795 6.03517 2.20352 6.41736 1.75358Z" fill="var(--fill-0, black)"/>
</svg>
