<svg preserveAspectRatio="none" width="100%" height="100%" overflow="visible" style="display: block;" viewBox="0 0 14 14" fill="none" xmlns="http://www.w3.org/2000/svg">
<path id="Shape" fill-rule="evenodd" clip-rule="evenodd" d="M6.11816 0C9.49723 0 12.2371 2.74013 12.2373 6.11914L12.2295 6.43457C12.1653 7.69826 11.7162 8.85966 10.999 9.8069C10.9374 9.88824 10.9433 10.0029 11.0153 10.0751L13.8011 12.8654C14.0608 13.1251 14.0608 13.5462 13.8011 13.8059C13.5414 14.0653 13.1203 14.0655 12.8607 13.8059L10.0741 11.0166C10.0019 10.9444 9.88717 10.9384 9.80574 11C8.78013 11.7762 7.50337 12.2383 6.11816 12.2383L5.80371 12.2305C2.57099 12.0666 0.000255625 9.39252 0 6.11914C0.00023088 2.74027 2.7393 0.000230882 6.11816 0ZM6.11816 1.33105C3.47384 1.33129 1.33031 3.47481 1.33008 6.11914C1.33034 8.76344 3.47386 10.908 6.11816 10.9082C8.76267 10.9082 10.907 8.76358 10.9072 6.11914C10.907 3.47467 8.76269 1.33105 6.11816 1.33105Z" fill="var(--fill-0, #7B618F)"/>
</svg>
