<svg preserveAspectRatio="none" width="100%" height="100%" overflow="visible" style="display: block;" viewBox="0 0 8 5" fill="none" xmlns="http://www.w3.org/2000/svg">
<path id="Shape" d="M6.86193 0.195262C7.12228 -0.0650874 7.54429 -0.0650874 7.80464 0.195262C8.06499 0.455612 8.06499 0.877621 7.80464 1.13797L4.94266 3.99995C4.84492 4.09769 4.72534 4.2195 4.60867 4.30854C4.47656 4.40934 4.27336 4.5286 3.99995 4.5286C3.72654 4.5286 3.52334 4.40934 3.39123 4.30854C3.27455 4.2195 3.15498 4.09769 3.05724 3.99995L0.195262 1.13797C-0.0650874 0.877621 -0.0650874 0.455612 0.195262 0.195262C0.455612 -0.0650874 0.877621 -0.0650874 1.13797 0.195262L3.52854 2.58584C3.75077 2.80806 3.86188 2.91917 3.99995 2.91917C4.13802 2.91917 4.24913 2.80806 4.47135 2.58584L6.86193 0.195262Z" fill="var(--fill-0, #7B618F)"/>
</svg>
