<svg preserveAspectRatio="none" width="100%" height="100%" overflow="visible" style="display: block;" viewBox="0 0 32 32" fill="none" xmlns="http://www.w3.org/2000/svg">
<g id="Frame 46">
<rect width="32" height="32" rx="10" fill="var(--fill-0, #F1F0FB)"/>
<path id="Shape" d="M11.173 17.9466L8.12199 15.413C7.92197 15.248 7.77645 15.0263 7.7045 14.7772C7.63255 14.528 7.63751 14.2629 7.71875 14.0166C7.79778 13.77 7.94945 13.553 8.15388 13.3941C8.35832 13.2352 8.606 13.1417 8.86447 13.1259L12.8083 12.8709L13.3428 12.4709L14.7979 8.81502C14.9963 8.32003 15.4678 8 16.0001 8C16.5325 8 17.004 8.32003 17.2024 8.81395V8.81502L18.6575 12.4709L19.1919 12.8709L23.1358 13.1259C23.6671 13.16 24.1173 13.5099 24.2815 14.0166C24.4469 14.5244 24.2879 15.0727 23.8783 15.413L20.8326 17.9424L20.6406 18.5739L21.6114 22.3876C21.7426 22.905 21.5485 23.4395 21.1175 23.752C20.9082 23.9042 20.6581 23.9901 20.3994 23.9986C20.1408 24.0072 19.8856 23.938 19.6667 23.8L16.3308 21.691H15.6684L12.3336 23.8C11.8792 24.0838 11.3095 24.0635 10.8817 23.752C10.6716 23.6008 10.512 23.3896 10.4239 23.1462C10.3357 22.9027 10.3232 22.6383 10.3878 22.3876L11.3565 18.5835L11.173 17.9466V17.9466Z" fill="var(--fill-0, #7B618F)"/>
</g>
</svg>
