<svg preserveAspectRatio="none" width="100%" height="100%" overflow="visible" style="display: block;" viewBox="0 0 15 9" fill="none" xmlns="http://www.w3.org/2000/svg">
<path id="m" d="M13.085 6.39564H14.094V8.03464H10.912V3.63464C10.912 2.25364 10.472 1.73464 9.618 1.73464C8.583 1.73464 8.169 2.51964 8.169 3.60264V6.36464H9.178V8.00564H6V3.63164C6 2.25064 5.56 1.73164 4.706 1.73164C3.671 1.73164 3.092 2.51664 3.092 3.59964V6.36164H4.7V8.00564H0.046V6.36664H1V2.09564H0V0.142643H2.875V1.37664C3.46809 0.495798 4.4694 -0.0218192 5.531 0.00364262C6.64392 -0.0570328 7.65597 0.645673 7.988 1.70964C8.34537 0.66409 9.34149 -0.0272787 10.446 0.00364262C11.1704 -0.0294312 11.8736 0.252514 12.3746 0.776823C12.8755 1.30113 13.1251 2.01652 13.059 2.73864V6.39564H13.085Z" fill="var(--fill-0, white)"/>
</svg>
