<svg preserveAspectRatio="none" width="100%" height="100%" overflow="visible" style="display: block;" viewBox="0 0 4 9" fill="none" xmlns="http://www.w3.org/2000/svg">
<path id="Fill 18" fill-rule="evenodd" clip-rule="evenodd" d="M3.938 2.056C3.424 1.863 2.907 1.637 2.567 1.264C2.692 0.841 2.417 0.517 2.143 0.243C1.719 -0.056 1.146 0.068 0.698 0.193C0.461 0.145 0.23 0.074 0 0V8.411C0.108 8.404 0.215 8.406 0.324 8.392C0.324 8.342 0.299 8.292 0.274 8.218C0.249 8.143 0.224 8.093 0.224 8.018C0.548 7.42 0.374 6.373 1.221 5.95C1.794 5.651 1.844 5.501 2.493 5.625C2.834 5.7 3.58 5.937 3.938 5.875V2.056Z" fill="var(--fill-0, #F5F5F2)"/>
</svg>
