<svg preserveAspectRatio="none" width="100%" height="100%" overflow="visible" style="display: block;" viewBox="0 0 15 9" fill="none" xmlns="http://www.w3.org/2000/svg">
<path id="Shape" fill-rule="evenodd" clip-rule="evenodd" d="M13.7323 1.023C14.1952 1.58216 14.255 2.37262 13.8813 2.995L13.8453 3.047L13.8402 3.05319C13.6919 3.2331 13.5444 3.41201 13.3853 3.587C13.0594 3.94405 12.5058 3.96935 12.1488 3.6435C11.7917 3.31765 11.7664 2.76405 12.0923 2.407C12.2293 2.25519 12.3576 2.09949 12.4867 1.94278L12.4923 1.936C12.6013 1.801 12.7113 1.668 12.8253 1.536C13.1724 1.08283 13.1724 0.45317 12.8253 0C13.1463 0.323921 13.4491 0.665448 13.7323 1.023ZM7.83805 6.53984C8.49247 5.96745 9.00777 5.51675 9.56926 4.98L9.99926 5.427C10.2056 5.64091 10.3166 5.92921 10.307 6.22628C10.2974 6.52334 10.168 6.80387 9.94826 7.004L9.89839 7.04944C9.74119 7.19269 9.61522 7.30748 9.57626 7.341L8.90626 7.929C8.36061 8.39027 7.66773 8.64074 6.95326 8.635C6.25906 8.6424 5.58512 8.4012 5.05326 7.955C3.41492 6.52628 1.86412 5.00018 0.409261 3.385C0.0543192 2.99953 -0.0815255 2.46067 0.0482614 1.953C0.229674 1.22356 0.592983 0.551989 1.10426 0.001C0.758188 0.45452 0.758188 1.08348 1.10426 1.537C2.68583 3.35145 4.38981 5.05543 6.20426 6.637C6.65209 6.99977 7.29372 6.99601 7.73726 6.628C7.77123 6.59828 7.80482 6.56891 7.83805 6.53984Z" fill="url(#paint0_linear_5_2288)"/>
<defs>
<linearGradient id="paint0_linear_5_2288" x1="3.06562" y1="-3.35873" x2="-0.92014" y2="6.85334" gradientUnits="userSpaceOnUse">
<stop stop-color="#B833E1"/>
<stop offset="0.431" stop-color="#9059FF"/>
<stop offset="0.651" stop-color="#5B6DF8"/>
<stop offset="1" stop-color="#0090ED"/>
</linearGradient>
</defs>
</svg>
