<svg preserveAspectRatio="none" width="100%" height="100%" overflow="visible" style="display: block;" viewBox="0 0 16 15" fill="none" xmlns="http://www.w3.org/2000/svg">
<g id="pocketlogo">
<path id="Shape" d="M14.5518 0C15.1565 0 15.7067 0.383907 15.9141 0.954102C15.9727 1.11638 15.9896 1.28251 16 1.44824V6.27539L15.9443 7.23633C15.7128 9.41681 14.5801 11.3248 12.8281 12.6553C12.7936 12.676 12.7616 12.6994 12.7305 12.7236L12.71 12.7383C11.8048 13.3981 10.7958 13.8504 9.71094 14.0889C9.69379 14.0957 9.67633 14.103 9.65918 14.1064C9.60043 14.1203 9.54117 14.1303 9.48242 14.1406C8.9953 14.2304 8.50132 14.2754 8.01074 14.2754C7.48204 14.2754 6.94614 14.2233 6.4209 14.1162C5.28397 13.8847 4.23293 13.4221 3.29297 12.7344L3.27246 12.7207C3.2379 12.7 3.20688 12.6756 3.17578 12.6514C1.42375 11.3209 0.290652 9.41297 0.0556641 7.23242L0 6.27246V1.45117C3.0305e-05 1.27503 0.0345148 1.10231 0.0966797 0.936523C0.310907 0.376769 0.853423 9.74194e-05 1.45117 0H14.5518ZM5.00391 4.39941C4.56849 3.97782 3.8742 3.99179 3.45605 4.43066C3.03456 4.86602 3.05111 5.56037 3.48633 5.97852L7.24707 9.58594C7.4613 9.78974 7.7339 9.89061 8.00684 9.89062C8.27984 9.89062 8.55678 9.78983 8.76758 9.58594L12.5273 5.97852C12.9626 5.56036 12.9757 4.86604 12.5576 4.43066C12.1395 3.99525 11.4452 3.98127 11.0098 4.39941L8.00684 7.27734L5.00391 4.39941Z" fill="var(--fill-0, #EE4257)"/>
</g>
</svg>
