<svg preserveAspectRatio="none" width="100%" height="100%" overflow="visible" style="display: block;" viewBox="0 0 15 16" fill="none" xmlns="http://www.w3.org/2000/svg">
<g id="airbnb">
<path id="Vector" d="M13.8234 12.9571C13.7115 13.7902 13.1508 14.5106 12.3662 14.8309C11.9817 14.9907 11.5651 15.0392 11.1486 14.9907C10.7484 14.9429 10.3475 14.8145 9.93169 14.5748C9.35535 14.2538 8.77827 13.7581 8.10563 13.0213C9.16274 11.7238 9.80328 10.539 10.0437 9.4819C10.1557 8.98544 10.1721 8.53677 10.1235 8.12019C10.0593 7.72005 9.91526 7.35125 9.6913 7.03098C9.19484 6.31056 8.3617 5.89399 7.43299 5.89399C6.50429 5.89399 5.67114 6.32624 5.17469 7.03098C4.95072 7.35125 4.80664 7.72005 4.74244 8.12019C4.67823 8.53677 4.69466 9.00112 4.82232 9.4819C5.0627 10.539 5.71892 11.7402 6.76035 13.037C6.10339 13.7738 5.51138 14.2703 4.9343 14.5905C4.51772 14.8309 4.11758 14.9593 3.71743 15.0071C3.30459 15.0534 2.88727 14.9981 2.50055 14.8473C1.71593 14.5271 1.15528 13.8059 1.04329 12.9735C0.995514 12.5733 1.02762 12.1732 1.18738 11.7245C1.23516 11.564 1.31578 11.4043 1.39566 11.2124C1.50765 10.9563 1.63605 10.6838 1.76371 10.4113L1.78014 10.3792C2.88503 7.99254 4.07054 5.55804 5.30384 3.18776L5.35162 3.09145C5.48002 2.85181 5.60768 2.595 5.73609 2.35461C5.8645 2.09854 6.00858 1.85816 6.18477 1.64987C6.52146 1.2654 6.96939 1.05711 7.46584 1.05711C7.96229 1.05711 8.41097 1.2654 8.74692 1.64987C8.9231 1.85816 9.06718 2.09854 9.19559 2.35461C9.324 2.595 9.45166 2.85106 9.58006 3.09071L9.62859 3.18701C10.8455 5.57298 12.031 8.00747 13.1359 10.3942V10.4099C13.2643 10.6659 13.3763 10.9548 13.5039 11.2109C13.5838 11.4035 13.6644 11.5633 13.7122 11.723C13.8399 12.1404 13.8876 12.5405 13.8234 12.9571ZM7.43299 12.2038C6.56849 11.1146 6.00783 10.0896 5.81522 9.22508C5.73534 8.85629 5.71892 8.53602 5.76744 8.24785C5.79955 7.99179 5.89585 7.76708 6.02351 7.57521C6.3281 7.14296 6.84023 6.87047 7.43299 6.87047C8.02575 6.87047 8.55431 7.12729 8.84247 7.57521C8.97088 7.76782 9.06644 7.99179 9.09854 8.24785C9.14632 8.53602 9.13064 8.87271 9.05076 9.22508C8.8589 10.0739 8.29824 11.0989 7.43299 12.2038ZM14.6566 11.3714C14.5767 11.1795 14.4961 10.9713 14.4162 10.7951C14.2878 10.5069 14.1601 10.2344 14.0474 9.97835L14.0317 9.96267C12.9268 7.56028 11.7413 5.12579 10.4923 2.7234L10.4446 2.6271C10.3162 2.38671 10.1885 2.13065 10.0601 1.87458C9.89958 1.58641 9.73982 1.28182 9.48376 0.993654C8.97088 0.35237 8.23404 0 7.44942 0C6.64837 0 5.92795 0.35237 5.39865 0.960806C5.15826 1.24897 4.98208 1.55356 4.82232 1.84173C4.69391 2.0978 4.56625 2.35386 4.43784 2.59425L4.39006 2.68981C3.15677 5.0922 1.95557 7.52669 0.850684 9.92908L0.835007 9.96118C0.723024 10.2172 0.594618 10.4897 0.466212 10.7779C0.380359 10.9675 0.300479 11.1601 0.225824 11.3542C0.0175371 11.947 -0.046666 12.5077 0.0332146 13.084C0.2094 14.2852 1.01044 15.2945 2.11533 15.7424C2.53191 15.9186 2.96416 15.9985 3.41283 15.9985C3.54124 15.9985 3.701 15.9828 3.82941 15.9664C4.35796 15.9022 4.9022 15.7268 5.43075 15.4222C6.08771 15.0541 6.71183 14.5256 7.41657 13.7566C8.12131 14.5256 8.76185 15.0541 9.40238 15.4222C9.93094 15.7268 10.4752 15.9022 11.0037 15.9664C11.1321 15.9828 11.2919 15.9985 11.4203 15.9985C11.869 15.9985 12.3169 15.9186 12.7178 15.7424C13.8391 15.2938 14.6237 14.2688 14.7999 13.084C14.9283 12.5241 14.8641 11.9642 14.6566 11.3714Z" fill="var(--fill-0, #FF5A5F)"/>
</g>
</svg>
