<svg preserveAspectRatio="none" width="100%" height="100%" overflow="visible" style="display: block;" viewBox="0 0 16 16" fill="none" xmlns="http://www.w3.org/2000/svg">
<path id="Shape" fill-rule="evenodd" clip-rule="evenodd" d="M7.97554 0C3.57187 0 0 3.57187 0 7.97554C0 11.4985 2.29969 14.4832 5.43119 15.5596C5.82263 15.6086 5.96942 15.3639 5.96942 15.1682C5.96942 14.9725 5.96942 14.4832 5.96942 13.7982C3.76758 14.2875 3.27829 12.7217 3.27829 12.7217C2.93578 11.792 2.39755 11.5474 2.39755 11.5474C1.66361 11.0581 2.44648 11.0581 2.44648 11.0581C3.22936 11.107 3.66972 11.8899 3.66972 11.8899C4.40367 13.1131 5.52905 12.7706 5.96942 12.5749C6.01835 12.0367 6.263 11.6942 6.45872 11.4985C4.69725 11.3028 2.83792 10.6177 2.83792 7.53517C2.83792 6.65443 3.1315 5.96942 3.66972 5.38226C3.57187 5.18654 3.32722 4.35474 3.76758 3.27829C3.76758 3.27829 4.4526 3.08257 5.96942 4.11009C6.6055 3.91437 7.29052 3.86544 7.97554 3.86544C8.66055 3.86544 9.34557 3.9633 9.98165 4.11009C11.4985 3.08257 12.1835 3.27829 12.1835 3.27829C12.6239 4.35474 12.3303 5.18654 12.2813 5.38226C12.7706 5.92049 13.1131 6.65443 13.1131 7.53517C13.1131 10.6177 11.2538 11.2538 9.49235 11.4495C9.78593 11.6942 10.0306 12.1835 10.0306 12.9174C10.0306 13.9939 10.0306 14.8257 10.0306 15.1193C10.0306 15.315 10.1774 15.5596 10.5688 15.5107C13.7492 14.4343 16 11.4495 16 7.92661C15.9511 3.57187 12.3792 0 7.97554 0Z" fill="var(--fill-0, #191717)"/>
</svg>
