<svg preserveAspectRatio="none" width="100%" height="100%" overflow="visible" style="display: block;" viewBox="0 0 16 16" fill="none" xmlns="http://www.w3.org/2000/svg">
<g id="Slack">
<path id="Vector" fill-rule="evenodd" clip-rule="evenodd" d="M5.8546 0C4.97191 0.000652396 4.25754 0.716983 4.25819 1.59967C4.25754 2.48236 4.97256 3.1987 5.85525 3.19935H7.45232V1.60033C7.45297 0.717635 6.73794 0.00130479 5.8546 0C5.85525 0 5.85525 0 5.8546 0V0ZM5.8546 4.26667H1.59707C0.714375 4.26732 -0.000650613 4.98365 1.78292e-06 5.86634C-0.00130301 6.74903 0.713722 7.46536 1.59641 7.46667H5.8546C6.73729 7.46601 7.45232 6.74968 7.45166 5.86699C7.45232 4.98365 6.73729 4.26732 5.8546 4.26667V4.26667Z" fill="var(--fill-0, #36C5F0)"/>
<path id="Vector_2" fill-rule="evenodd" clip-rule="evenodd" d="M15.9681 5.86634C15.9688 4.98365 15.2538 4.26732 14.3711 4.26667C13.4884 4.26732 12.7733 4.98365 12.774 5.86634V7.46667H14.3711C15.2538 7.46601 15.9688 6.74968 15.9681 5.86634ZM11.7099 5.86634V1.59967C11.7106 0.717635 10.9962 0.00130479 10.1135 0C9.23082 0.000652396 8.51579 0.716983 8.51644 1.59967V5.86634C8.51514 6.74903 9.23016 7.46536 10.1129 7.46667C10.9956 7.46601 11.7106 6.74968 11.7099 5.86634Z" fill="var(--fill-0, #2EB67D)"/>
<path id="Vector_3" fill-rule="evenodd" clip-rule="evenodd" d="M10.1129 16C10.9955 15.9993 11.7106 15.283 11.7099 14.4003C11.7106 13.5176 10.9955 12.8013 10.1129 12.8007H8.51579V14.4003C8.51514 15.2824 9.23016 15.9987 10.1129 16ZM10.1129 11.7327H14.371C15.2537 11.732 15.9688 11.0157 15.9681 10.133C15.9694 9.25032 15.2544 8.53399 14.3717 8.53268H10.1135C9.23081 8.53333 8.51579 9.24966 8.51644 10.1324C8.51579 11.0157 9.23016 11.732 10.1129 11.7327V11.7327Z" fill="var(--fill-0, #ECB22E)"/>
<path id="Vector_4" fill-rule="evenodd" clip-rule="evenodd" d="M8.16637e-05 10.133C-0.000570732 11.0157 0.714455 11.732 1.59715 11.7327C2.47984 11.732 3.19486 11.0157 3.19421 10.133V8.53329H1.59715C0.714455 8.53394 -0.000570732 9.25028 8.16637e-05 10.133ZM4.25827 10.133V14.3997C4.25696 15.2824 4.97199 15.9987 5.85468 16C6.73737 15.9993 7.4524 15.283 7.45174 14.4003V10.1343C7.45305 9.25158 6.73802 8.53525 5.85533 8.53394C4.97199 8.53394 4.25761 9.25028 4.25827 10.133C4.25827 10.1336 4.25827 10.133 4.25827 10.133Z" fill="var(--fill-0, #E01E5A)"/>
</g>
</svg>
