<svg preserveAspectRatio="none" width="100%" height="100%" overflow="visible" style="display: block;" viewBox="0 0 16 16" fill="none" xmlns="http://www.w3.org/2000/svg">
<path id="Path" d="M7.8595 15.742C7.1653 15.7494 6.49136 15.5082 5.9595 15.062C4.08212 13.4269 2.31962 11.6644 0.684503 9.78698C-0.228168 8.67342 -0.228168 7.07053 0.684503 5.95698C2.31752 4.08127 4.07696 2.31948 5.9505 0.683977C7.06356 -0.227992 8.66545 -0.227992 9.7785 0.683977C11.6538 2.32034 13.4143 4.08384 15.0475 5.96198C15.9604 7.07507 15.9604 8.67788 15.0475 9.79098C14.9415 9.91398 14.8425 10.034 14.7475 10.154C14.5975 10.336 14.4475 10.517 14.2875 10.694C13.9617 11.051 13.4081 11.0763 13.051 10.7505C12.694 10.4246 12.6687 9.87103 12.9945 9.51398C13.1345 9.35998 13.2645 9.20198 13.3945 9.04298C13.5025 8.90998 13.6135 8.77798 13.7275 8.64298C14.0942 8.20619 14.1005 7.57093 13.7425 7.12698C12.1584 5.30341 10.4504 3.59134 8.6305 2.00298C8.17773 1.65689 7.54928 1.65689 7.0965 2.00298C5.28488 3.58556 3.58295 5.28949 2.0025 7.10298C1.63872 7.55382 1.64248 8.19841 2.0115 8.64498C3.56377 10.4749 5.26202 12.1758 7.0895 13.731C7.53997 14.1019 8.19003 14.1019 8.6405 13.731C9.3405 13.118 9.8805 12.649 10.4695 12.086L8.5695 10.159C8.30723 9.88399 8.16357 9.51693 8.1695 9.13698C8.17865 8.77069 8.33383 8.42325 8.6005 8.17198L8.7005 8.07198C9.1395 7.65798 9.3895 7.50298 9.3895 6.81598C9.3318 6.02297 8.67161 5.40907 7.8765 5.40907C7.0814 5.40907 6.42121 6.02297 6.3635 6.81598C6.3635 7.49698 6.7215 7.70298 7.0875 8.04398C7.67012 8.52652 7.77174 9.38128 7.3185 9.98698C7.26833 10.0515 7.20943 10.1087 7.1435 10.157L5.9435 11.002C5.55299 11.2493 5.03746 11.1502 4.76646 10.7758C4.49546 10.4013 4.56249 9.8806 4.9195 9.58698L5.3065 9.25098C5.35796 9.20979 5.39082 9.14974 5.39777 9.08419C5.40472 9.01865 5.38518 8.95304 5.3435 8.90198C4.84417 8.32544 4.58377 7.58003 4.6155 6.81798C4.67705 5.06032 6.11977 3.66724 7.8785 3.66724C9.63724 3.66724 11.08 5.06032 11.1415 6.81798C11.191 7.63858 10.8909 8.4418 10.3155 9.02898C10.2247 9.12528 10.2247 9.27567 10.3155 9.37198L12.1895 11.372C12.3804 11.5668 12.488 11.8282 12.4895 12.101C12.4919 12.3904 12.3772 12.6684 12.1715 12.872C11.3365 13.703 10.6615 14.293 9.8055 15.04C9.26112 15.4982 8.57107 15.7472 7.8595 15.742V15.742Z" fill="url(#paint0_linear_5_2251)"/>
<defs>
<linearGradient id="paint0_linear_5_2251" x1="7.57837" y1="-2.46336" x2="-2.96836" y2="8.16497" gradientUnits="userSpaceOnUse">
<stop stop-color="#FF9640"/>
<stop offset="0.6" stop-color="#FC4055"/>
<stop offset="1" stop-color="#E31587"/>
</linearGradient>
</defs>
</svg>
