<svg preserveAspectRatio="none" width="100%" height="100%" overflow="visible" style="display: block;" viewBox="0 0 11 16" fill="none" xmlns="http://www.w3.org/2000/svg">
<g id="Figma">
<path id="Vector" d="M2.66667 16C4.13867 16 5.33334 14.8053 5.33334 13.3333V10.6667H2.66667C1.19467 10.6667 0 11.8613 0 13.3333C0 14.8053 1.19467 16 2.66667 16Z" fill="var(--fill-0, #0ACF83)"/>
<path id="Vector_2" d="M0 8C0 6.528 1.19467 5.33334 2.66667 5.33334H5.33334V10.6667H2.66667C1.19467 10.6667 0 9.472 0 8Z" fill="var(--fill-0, #A259FF)"/>
<path id="Vector_3" d="M0 2.66667C0 1.19467 1.19467 0 2.66667 0H5.33334V5.33334H2.66667C1.19467 5.33334 0 4.13867 0 2.66667Z" fill="var(--fill-0, #F24E1E)"/>
<path id="Vector_4" d="M5.33334 0H8.00001C9.47202 0 10.6667 1.19467 10.6667 2.66667C10.6667 4.13867 9.47202 5.33334 8.00001 5.33334H5.33334V0Z" fill="var(--fill-0, #FF7262)"/>
<path id="Vector_5" d="M10.6667 8C10.6667 9.472 9.47202 10.6667 8.00001 10.6667C6.52801 10.6667 5.33334 9.472 5.33334 8C5.33334 6.528 6.52801 5.33334 8.00001 5.33334C9.47202 5.33334 10.6667 6.528 10.6667 8Z" fill="var(--fill-0, #1ABCFE)"/>
</g>
</svg>
