<svg preserveAspectRatio="none" width="100%" height="100%" overflow="visible" style="display: block;" viewBox="0 0 2 6" fill="none" xmlns="http://www.w3.org/2000/svg">
<path id="Combined Shape" d="M1.76953 5.64258C1.69367 5.55773 1.61681 5.47458 1.54492 5.38477C1.61484 5.35079 1.69263 5.30562 1.76953 5.26367V5.64258ZM1.76953 5.08105C1.75357 5.08305 1.73259 5.08592 1.66992 5.08594C1.7018 5.05009 1.73567 5.01724 1.76953 4.98438V5.08105ZM1.76953 4.75C1.61757 4.80999 1.47109 4.88438 1.37012 4.98535C1.43615 4.67544 1.63755 4.4625 1.76953 4.22754V4.75ZM1.76953 4.16797C1.4876 4.31495 1.20662 4.49997 0.97168 4.71191C0.97168 4.43793 1.2953 4.16345 1.44531 3.93945C1.54431 3.78945 1.69453 3.66423 1.76953 3.49023V4.16797ZM1.76953 3.49023C1.46929 3.59045 0.771915 3.96476 0.498047 4.13867C0.623019 3.71477 1.19549 3.06724 1.51953 2.74316C1.19535 2.76851 0.522893 3.16648 0.249023 3.31641C0.249023 3.29141 0.273995 3.26621 0.249023 3.24121C0.473976 2.89229 1.14565 2.34437 1.46973 2.07031C1.09663 2.12048 0.348912 2.51859 0 2.64355C0.298918 2.09571 1.29537 1.42248 1.76953 1.02344V3.49023ZM1.76953 1.02344L0.623047 1.32227C0.448198 1.32243 0.298314 1.44686 0.149414 1.42188C0.528421 1.04288 1.15657 0.48497 1.76953 0V1.02344Z" fill="var(--fill-0, #F5F5F2)"/>
</svg>
