<svg preserveAspectRatio="none" width="100%" height="100%" overflow="visible" style="display: block;" viewBox="0 0 16 16" fill="none" xmlns="http://www.w3.org/2000/svg">
<g id="CBC logo">
<path id="Union" d="M10.4678 14.5752C10.2177 15.0083 9.85787 15.3681 9.4248 15.6182C8.99167 15.8682 8.50014 16 8 16C7.49984 16 7.00835 15.8682 6.5752 15.6182C6.1421 15.3681 5.78228 15.0083 5.53223 14.5752H10.4678ZM10.8496 11.2881C10.8495 12.0436 10.5489 12.7685 10.0146 13.3027C9.48033 13.837 8.75558 14.1367 8 14.1367C7.24442 14.1367 6.51968 13.8369 5.98535 13.3027C5.4511 12.7685 5.1505 12.0436 5.15039 11.2881H10.8496ZM4.71191 13.9912C3.99512 13.9911 3.30764 13.7061 2.80078 13.1992C2.29393 12.6924 2.0089 12.0049 2.00879 11.2881H4.71191V13.9912ZM13.9912 11.2881C13.9911 12.0049 13.7061 12.6924 13.1992 13.1992C12.6924 13.7061 12.0049 13.9911 11.2881 13.9912V11.2881H13.9912ZM4.71191 10.8496C3.95636 10.8495 3.23153 10.5489 2.69727 10.0146C2.16303 9.48032 1.86328 8.7556 1.86328 8C1.86328 7.2444 2.16303 6.51968 2.69727 5.98535C3.23153 5.45109 3.95636 5.15049 4.71191 5.15039V10.8496ZM8 5.15039C9.57361 5.15042 10.8496 6.42638 10.8496 8C10.8496 9.57362 9.57361 10.8496 8 10.8496C6.42637 10.8496 5.15039 9.57363 5.15039 8C5.15039 6.42637 6.42637 5.15039 8 5.15039ZM11.2881 5.15039C12.0436 5.15049 12.7685 5.45109 13.3027 5.98535C13.837 6.51968 14.1367 7.2444 14.1367 8C14.1367 8.7556 13.837 9.48032 13.3027 10.0146C12.7685 10.5489 12.0436 10.8495 11.2881 10.8496V5.15039ZM1.4248 10.4678C0.991712 10.2177 0.631911 9.85788 0.381836 9.4248C0.131757 8.99165 -2.18626e-08 8.50016 0 8C1.07507e-06 7.49984 0.131757 7.00834 0.381836 6.5752C0.631912 6.14212 0.991713 5.78227 1.4248 5.53223V10.4678ZM14.5752 5.53223C15.0083 5.78227 15.3681 6.14212 15.6182 6.5752C15.8682 7.00834 16 7.49984 16 8C16 8.50016 15.8682 8.99165 15.6182 9.4248C15.3681 9.85788 15.0083 10.2177 14.5752 10.4678V5.53223ZM4.71191 4.71191H2.00879C2.0089 3.99513 2.29393 3.30763 2.80078 2.80078C3.30764 2.29394 3.99513 2.00888 4.71191 2.00879V4.71191ZM8 1.86328C8.75558 1.8633 9.48033 2.16304 10.0146 2.69727C10.5489 3.23152 10.8495 3.95638 10.8496 4.71191H5.15039C5.1505 3.95638 5.4511 3.23152 5.98535 2.69727C6.51968 2.16307 7.24443 1.86328 8 1.86328ZM11.2881 2.00879C12.0049 2.00889 12.6924 2.29394 13.1992 2.80078C13.7061 3.30763 13.9911 3.99513 13.9912 4.71191H11.2881V2.00879ZM8 0C8.50013 1.24997e-05 8.99167 0.131768 9.4248 0.381836C9.85786 0.631911 10.2177 0.991723 10.4678 1.4248H5.53223C5.78229 0.991689 6.14209 0.631913 6.5752 0.381836C7.00835 0.131757 7.49984 4.37252e-08 8 0Z" fill="var(--fill-0, #F40C0C)"/>
</g>
</svg>
