<svg preserveAspectRatio="none" width="100%" height="100%" overflow="visible" style="display: block;" viewBox="0 0 16 16" fill="none" xmlns="http://www.w3.org/2000/svg">
<g id="DuckDuckGo">
<circle id="Oval" cx="8" cy="8" r="8" fill="var(--fill-0, #DE5833)"/>
<path id="Shape" fill-rule="evenodd" clip-rule="evenodd" d="M13.2 2.8C13.8667 3.46667 14.4 4.25333 14.7733 5.13333C15.16 6.04 15.3467 7 15.3467 8C15.3467 9 15.16 9.96 14.7733 10.8667C14.4 11.7333 13.88 12.52 13.2 13.2C12.5333 13.8667 11.7467 14.4 10.8667 14.7733C9.95999 15.1467 9 15.3467 8 15.3467C7 15.3467 6.04 15.16 5.13333 14.7733C4.26666 14.4 3.48 13.88 2.8 13.2C2.13333 12.5333 1.6 11.7467 1.22666 10.8667C0.853328 9.96 0.653328 8.98667 0.653328 8C0.653328 7 0.839995 6.04 1.22666 5.13333C1.6 4.26667 2.12 3.48 2.8 2.8C3.46666 2.13333 4.25333 1.6 5.13333 1.22667C6.04 0.853333 7 0.653333 8 0.653333C9 0.653333 9.95999 0.84 10.8667 1.22667C11.7333 1.6 12.52 2.12 13.2 2.8ZM8.05333 10.3733C8.05333 11.8667 9.17333 13.88 9.59999 14.6C12.5733 13.88 14.7867 11.2 14.7867 7.98667C14.7867 4.22667 11.7467 1.18667 7.98666 1.18667C4.22666 1.18667 1.18666 4.24 1.18666 7.98667C1.18666 10.9333 3.06666 13.44 5.67999 14.3867C5.33333 12.9333 4.34666 8.77333 4.11999 6.44C3.95999 4.78667 4.85333 3.89333 6.57333 3.66667C5.82666 3.42667 4.50666 3.49333 4.50666 3.49333C4.53333 3.04 5.19999 2.94667 5.19999 2.94667C4.85333 2.77333 4.54666 2.68 4.54666 2.68C6.38666 2.42667 7.54666 3.05333 8.03999 3.70667C10.04 4.18667 10.36 6.48 10.36 7.13333C10.36 8.42947 9.84633 8.45779 9.3038 8.4877C8.69665 8.52118 8.05333 8.55665 8.05333 10.3733Z" fill="var(--fill-0, white)"/>
<path id="Beak_2_" fill-rule="evenodd" clip-rule="evenodd" d="M7.62667 9.10667C7.62667 8.22667 8.82667 7.94667 9.28 7.94667C10.5067 7.94667 12.24 7.16 12.6667 7.17333C13.1067 7.18667 13.3867 7.36 13.3867 7.56C13.3867 7.85333 10.9333 8.96 9.98667 8.86667C9.08 8.78667 8.86667 8.88 8.86667 9.25333C8.86667 9.57333 9.52 9.86667 10.24 9.86667C11.32 9.86667 12.3733 9.38667 12.6933 9.61333C12.9733 9.81333 11.96 10.5333 10.8 10.5333C9.64 10.5333 7.62667 9.98667 7.62667 9.10667Z" fill="var(--fill-0, #FED30A)"/>
<g id="Group">
<path id="Path" d="M9.76 5.37333C9.44 4.96 8.86667 4.94667 8.66667 5.42667C8.97334 5.18667 9.34667 5.13333 9.76 5.37333Z" fill="var(--fill-0, #2D4F8D)"/>
<path id="Path_2" d="M6.18667 5.38667C5.74667 5.12 5.01333 5.09333 5.05333 5.93333C5.28 5.41333 5.57333 5.32 6.18667 5.38667Z" fill="var(--fill-0, #2D4F8D)"/>
<path id="Shape_2" fill-rule="evenodd" clip-rule="evenodd" d="M9.05333 6.6C9.05333 6.36 9.25333 6.16 9.49333 6.16C9.73333 6.16 9.93333 6.36 9.93333 6.6C9.93333 6.84 9.73333 7.04 9.49333 7.04C9.25333 7.04 9.05333 6.84 9.05333 6.6ZM9.51999 6.42667C9.51999 6.50667 9.58666 6.56 9.65332 6.56C9.71999 6.56 9.77332 6.50667 9.78666 6.42667C9.78666 6.34667 9.73332 6.29333 9.65332 6.29333C9.57332 6.29333 9.51999 6.36 9.51999 6.42667Z" fill="var(--fill-0, #2D4F8D)"/>
<path id="Shape_3" fill-rule="evenodd" clip-rule="evenodd" d="M5.57334 6.90666C5.57334 6.62666 5.8 6.4 6.08 6.4C6.36 6.4 6.58667 6.62666 6.58667 6.90666C6.58667 7.18666 6.36 7.41333 6.08 7.41333C5.8 7.41333 5.57334 7.18666 5.57334 6.90666ZM6.12 6.72C6.12 6.8 6.18666 6.86667 6.26666 6.86667C6.34666 6.86667 6.41333 6.8 6.41333 6.72C6.41333 6.64 6.34666 6.57333 6.26666 6.57333C6.18666 6.57333 6.12 6.64 6.12 6.72Z" fill="var(--fill-0, #2D4F8D)"/>
</g>
<g id="Group_2">
<path id="Path_3" d="M4.97334 4.24C4.33334 4.70666 4.04 5.42666 4.13334 6.44C4.36 8.77333 5.34667 12.9467 5.69334 14.4C5.81334 14.44 5.93334 14.48 6.05334 14.52C5.84 13.64 4.81334 9.34666 4.36 6.05333C4.24 5.17333 4.57334 4.65333 4.97334 4.24Z" fill="var(--fill-0, #D5D7D8)"/>
<path id="Path_4" d="M6.56 3.66667C6.61334 3.66667 6.65334 3.65333 6.65334 3.65333C5.96 3.32 4.86667 3.30667 4.57334 3.30667C4.54667 3.36 4.52 3.42667 4.52 3.49333C4.50667 3.50667 5.8 3.42667 6.56 3.66667Z" fill="var(--fill-0, #D5D7D8)"/>
<path id="Path_5" d="M5.30667 2.94667C5.09334 2.8 4.92001 2.70667 4.81334 2.65333C4.72001 2.66667 4.64001 2.66667 4.54667 2.68C4.54667 2.68 4.85334 2.77333 5.20001 2.94667C5.20001 2.94667 5.18667 2.94667 5.17334 2.94667C5.25334 2.94667 5.30667 2.94667 5.30667 2.94667Z" fill="var(--fill-0, #D5D7D8)"/>
</g>
<g id="Group_3">
<path id="Path_6" d="M10.68 11.8133C10.4533 11.76 9.57334 12.3867 9.24 12.6267C9.22667 12.56 9.21334 12.5067 9.2 12.48C9.16 12.3467 8.30667 12.4267 8.10667 12.64C7.57334 12.3867 6.50667 11.8933 6.49334 12.2C6.45334 12.6 6.49334 14.2667 6.70667 14.3867C6.86667 14.48 7.77334 13.9867 8.22667 13.7333C8.22667 13.7333 8.22667 13.7333 8.24 13.7333C8.52 13.8 9.04 13.7333 9.22667 13.6133C9.25334 13.6 9.26667 13.5733 9.28 13.5467C9.69334 13.7067 10.5867 14.0267 10.7733 13.96C11.0133 13.8933 10.96 11.88 10.68 11.8133Z" fill="var(--fill-0, #67BD47)"/>
<path id="Path_7" d="M8.24001 13.7333C7.96001 13.68 8.05334 13.4 8.05334 12.7467V12.7467C7.98668 12.7867 7.93334 12.84 7.93334 12.8933C7.93334 13.5467 7.82668 13.84 8.12001 13.88C8.40001 13.9467 8.92001 13.88 9.13334 13.76C9.17334 13.7333 9.18668 13.6933 9.20001 13.6267C9.00001 13.7467 8.50668 13.8 8.24001 13.7333Z" fill="var(--fill-0, #43A347)"/>
</g>
</g>
</svg>
