<svg preserveAspectRatio="none" width="100%" height="100%" overflow="visible" style="display: block;" viewBox="0 0 16 14" fill="none" xmlns="http://www.w3.org/2000/svg">
<g id="Amazon">
<path id="Shape" d="M6.72922 0.20721C7.71073 -0.0601609 8.70541 -0.0758138 9.69016 0.201351C10.4825 0.423079 11.1475 0.814044 11.5193 1.59002C11.7312 2.03024 11.7803 2.50651 11.7868 2.9826C11.7934 3.59233 11.7865 4.20852 11.7898 4.82147C11.7898 5.36603 11.81 5.90776 11.7839 6.45233C11.7579 7.07162 11.9466 7.60306 12.3376 8.07244C12.3833 8.12788 12.4265 8.18366 12.4655 8.24237C12.6055 8.45413 12.5787 8.6009 12.3864 8.76385C11.9757 9.10936 11.5686 9.45838 11.1579 9.80389C10.9134 10.0092 10.7601 10.0059 10.5124 9.80389C10.1798 9.53325 9.91873 9.20036 9.68723 8.84491C9.63187 8.76034 9.60233 8.76413 9.53391 8.82928C9.12313 9.23024 8.68925 9.60136 8.1384 9.78729C7.28732 10.0775 6.42242 10.1238 5.56809 9.82049C4.74658 9.52696 4.25458 8.91978 4.072 8.07537C3.86993 7.13312 3.97408 6.23647 4.55442 5.43768C4.9946 4.83452 5.60442 4.47938 6.30539 4.26092C7.0293 4.03919 7.77612 3.95408 8.5261 3.87909C8.73805 3.85625 8.94698 3.83712 9.15891 3.81756C9.21098 3.81428 9.2569 3.80684 9.25364 3.73846C9.24719 3.39307 9.28229 3.04121 9.2009 2.70233C9.09657 2.26873 8.81316 2.01374 8.37961 1.91912C8.06985 1.85065 7.76262 1.87076 7.46262 1.97186C7.0064 2.12842 6.72318 2.44486 6.6091 2.91424C6.54717 3.17153 6.42622 3.26245 6.17551 3.23651C5.64074 3.18107 5.10544 3.12592 4.57395 3.07049C4.35549 3.04764 4.2412 2.88108 4.28684 2.66912C4.56404 1.31604 5.45109 0.556119 6.72922 0.20721ZM9.12571 5.22284C8.87808 5.2456 8.62724 5.24887 8.37961 5.28143C7.946 5.33685 7.52178 5.44414 7.16965 5.71795C6.65771 6.11903 6.54975 6.66713 6.6345 7.28338C6.73559 8.00726 7.38167 8.40846 8.07297 8.16717C8.54242 8.00413 8.82913 7.65842 9.02805 7.22479C9.23672 6.78467 9.25363 6.31182 9.25364 5.83905C9.25364 5.676 9.2468 5.51284 9.25657 5.34979C9.26309 5.24869 9.22678 5.21304 9.12571 5.22284Z" fill="var(--fill-0, black)"/>
<path id="Path" d="M8.04675 13.1986C5.55876 13.1822 3.32511 12.5432 1.30666 11.1964C0.895795 10.9225 0.504491 10.6225 0.132774 10.2932C0.100174 10.2638 0.0675472 10.2345 0.0414676 10.1986C0.00559438 10.1497 -0.0204853 10.091 0.0219078 10.0323C0.0643009 9.96707 0.136047 9.96055 0.198 9.98991C0.341466 10.0584 0.478438 10.1334 0.61863 10.2051C1.90341 10.8834 3.25663 11.3725 4.67508 11.6822C5.95983 11.9627 7.25763 12.0931 8.575 12.0572C10.4565 12.0051 12.2695 11.6268 14.014 10.9257C14.0988 10.8899 14.1869 10.854 14.2749 10.8344C14.3988 10.8116 14.5228 10.8279 14.5782 10.9616C14.6303 11.0855 14.5619 11.1833 14.4706 11.2616C14.4053 11.317 14.3303 11.3627 14.2554 11.4116C13.1304 12.142 11.8978 12.6115 10.5935 12.9018C9.7326 13.0975 8.85872 13.192 8.04675 13.1986Z" fill="var(--fill-0, #FF9900)"/>
<path id="Path_2" d="M14.3238 10.2932C13.9488 10.2899 13.5771 10.3388 13.2054 10.3779C13.1336 10.3844 13.0521 10.404 13.0195 10.3258C12.9804 10.2377 13.0554 10.1855 13.1173 10.1432C13.5804 9.83667 14.0988 9.71601 14.6434 9.68665C15.0184 9.66385 15.3901 9.68016 15.7553 9.791C15.9216 9.83991 16.0031 9.93774 15.9999 10.1073C15.9803 11.0138 15.6771 11.8029 15.0217 12.4453C14.9988 12.4681 14.9727 12.4877 14.9467 12.5073C14.888 12.5497 14.8162 12.5888 14.7543 12.5366C14.6956 12.4877 14.7282 12.416 14.7543 12.3573C14.9467 11.8779 15.1423 11.4019 15.2368 10.8899C15.2499 10.8247 15.2532 10.7595 15.2564 10.6975C15.2597 10.4855 15.1847 10.3943 14.976 10.3421C14.7575 10.2834 14.539 10.2932 14.3238 10.2932Z" fill="var(--fill-0, #FF9900)"/>
</g>
</svg>
