<svg preserveAspectRatio="none" width="100%" height="100%" overflow="visible" style="display: block;" viewBox="0 0 16 16" fill="none" xmlns="http://www.w3.org/2000/svg">
<g id="mashable 1" clip-path="url(#clip0_5_2308)">
<path id="Vector" d="M16 0H0V16H16V0Z" fill="var(--fill-0, #4C4EDD)"/>
<path id="Vector_2" d="M3.2 5.82952V12.5514L6.25677 9.9884V3.26738L3.2 5.82952Z" fill="var(--fill-0, white)"/>
<path id="Vector_3" d="M7.42622 9.9836H6.84266L3.78783 12.552H4.36384L7.42622 9.9836Z" fill="var(--fill-0, white)"/>
<path id="Vector_4" d="M8.52424 9.9836H7.94076L4.88593 12.552H5.46194L8.52424 9.9836Z" fill="var(--fill-0, white)"/>
<path id="Vector_5" d="M9.63784 9.9836H9.05432L5.99953 12.552H6.57554L9.63784 9.9836Z" fill="var(--fill-0, white)"/>
<path id="Vector_6" d="M10.7358 9.9836H10.1524L7.09756 12.552H7.67357L10.7358 9.9836Z" fill="var(--fill-0, white)"/>
<path id="Vector_7" d="M11.862 9.9836H11.2784L8.2236 12.552H8.7996L11.862 9.9836Z" fill="var(--fill-0, white)"/>
<path id="Vector_8" d="M12.96 9.9836H12.3765L9.32168 12.552H9.89768L12.96 9.9836Z" fill="var(--fill-0, white)"/>
<path id="Vector_9" d="M10.7598 4.68431V4.68504L10.7585 4.68431L9.6056 6.6745L8.45272 4.68431L8.45152 4.68504V4.68431H7.48715V8.5644H8.45152V6.60442L9.39528 8.23376H9.81592L10.7598 6.60442V8.5644H11.7241V4.68431H10.7598Z" fill="var(--fill-0, white)"/>
</g>
<defs>
<clipPath id="clip0_5_2308">
<rect width="16" height="16" fill="white"/>
</clipPath>
</defs>
</svg>
